<svg xmlns="http://www.w3.org/2000/svg" width="256" height="256"><g stroke-width="0" stroke-miterlimit="10" fill="#d92222"><path d="M183.242 254.307H72.474c-13.187 0-24.12-10.313-24.893-23.478L36.543 42.312a8.428 8.428 0 018.416-8.922h165.795a8.45 8.45 0 016.135 2.644 8.455 8.455 0 012.284 6.278l-11.038 188.52c-.772 13.162-11.706 23.475-24.893 23.475zM53.895 50.247l10.517 179.596c.248 4.265 3.791 7.604 8.062 7.604h110.768a8.08 8.08 0 008.059-7.601l10.515-179.599H53.895z"/><path d="M228.162 50.247H27.551c-4.656 0-8.43-3.774-8.43-8.43s3.774-8.43 8.43-8.43h200.614a8.43 8.43 0 11-.003 16.86z"/><path d="M166.435 50.247H89.278a8.43 8.43 0 01-8.43-8.43V26.104c0-13.618 11.08-24.697 24.7-24.697h44.62c13.62 0 24.697 11.08 24.697 24.697v15.713a8.43 8.43 0 01-8.43 8.43zm-68.727-16.86h60.294v-7.283c.003-4.322-3.512-7.837-7.837-7.837h-44.617c-4.322 0-7.837 3.515-7.837 7.837v7.283zm67.606 178.744a8.433 8.433 0 01-8.424-8.925l6.951-118.705c.273-4.65 4.238-8.242 8.911-7.921a8.43 8.43 0 017.921 8.907l-6.952 118.709c-.26 4.479-3.979 7.935-8.407 7.935zm-74.918 0a8.43 8.43 0 01-8.407-7.935l-6.95-118.709a8.428 8.428 0 017.922-8.907c4.625-.312 8.635 3.273 8.908 7.921l6.95 118.706a8.43 8.43 0 01-8.423 8.924zm37.461 0a8.43 8.43 0 01-8.43-8.43V84.996a8.43 8.43 0 018.43-8.43 8.43 8.43 0 018.43 8.43V203.7a8.43 8.43 0 01-8.43 8.43z"/></g></svg>